<svg xmlns="http://www.w3.org/2000/svg" xmlns:xlink="http://www.w3.org/1999/xlink" height="800" width="1200" xml:space="preserve" y="0" x="0" id="Layer_1" version="1.1" viewBox="-30 -13.75 260 82.5"><style id="style4977" type="text/css">.st0{fill:#3e3d3d}.st1{fill:#6e6c6c}.st2,.st3{clip-path:url(#SVGID_2_);fill:#ea5746}.st3{fill:#ea5846}.st4{fill:#ea5845}.st4,.st5,.st6,.st7,.st9{clip-path:url(#SVGID_2_)}.st5{fill:#ea5945}.st6{fill:#ea5944}.st7{fill:#ea5a44}.st9{fill:#ea5b43}.st10{fill:#ea5c43}.st10,.st11,.st12,.st14,.st15{clip-path:url(#SVGID_2_)}.st11{fill:#ea5c42}.st12{fill:#ea5d42}.st14{fill:#ea5e41}.st15{fill:#ea5f41}.st16{fill:#ea5f40}.st16,.st17,.st18,.st19,.st21{clip-path:url(#SVGID_2_)}.st17{fill:#ea6040}.st18{fill:#ea603f}.st19{fill:#ea613f}.st21{fill:#ea623e}.st22{fill:#eb623e}.st22,.st23,.st24,.st25,.st27{clip-path:url(#SVGID_2_)}.st23{fill:#eb633e}.st24{fill:#eb633d}.st25{fill:#eb643d}.st27{fill:#eb653c}.st28{fill:#eb663c}.st28,.st29,.st30,.st31,.st32{clip-path:url(#SVGID_2_)}.st29{fill:#eb663b}.st30{fill:#eb673b}.st31{fill:#eb673a}.st32{fill:#eb683a}.st34{fill:#eb6939}.st34,.st35,.st36,.st37,.st39{clip-path:url(#SVGID_2_)}.st35{fill:#eb6a39}.st36{fill:#eb6a38}.st37{fill:#eb6b38}.st39{fill:#eb6c37}.st40{fill:#eb6d37}.st40,.st41,.st42,.st44,.st45{clip-path:url(#SVGID_2_)}.st41{fill:#eb6d36}.st42{fill:#eb6e36}.st44{fill:#eb6f35}.st45{fill:#eb7034}.st46{fill:#eb7134}.st46,.st47,.st48,.st49,.st50{clip-path:url(#SVGID_2_)}.st47{fill:#eb7133}.st48{fill:#eb7233}.st49{fill:#eb7332}.st50{fill:#eb7432}.st51{fill:#eb7431}.st51,.st52,.st54,.st55,.st56{clip-path:url(#SVGID_2_)}.st52{fill:#eb7531}.st54{fill:#eb7630}.st55{fill:#eb772f}.st56{fill:#eb782f}.st57{fill:#eb782e}.st57,.st59,.st60,.st62,.st63{clip-path:url(#SVGID_2_)}.st59{fill:#ec792e}.st60{fill:#ec7a2d}.st62{fill:#ec7b2c}.st63{fill:#ec7c2c}.st65{fill:#ec7d2b}.st65,.st67,.st68,.st69,.st70{clip-path:url(#SVGID_2_)}.st67{fill:#ec7e2a}.st68{fill:#ec7f2a}.st69{fill:#ec7f29}.st70{fill:#ec8029}.st71{fill:#ec8028}.st71,.st72,.st73,.st74,.st75{clip-path:url(#SVGID_2_)}.st72{fill:#ec8128}.st73{fill:#ec8127}.st74{fill:#ec8227}.st75{fill:#ec8326}</style><g transform="translate(-4.8 -5.5)" id="g4981"><path id="path4979" d="M4.8 18.1h5.1c2.9 12.4 3.2 14 3.6 16.6h.1c.4-2.4.8-4.7 3.2-16.6h5c2.7 12.4 2.9 13.6 3.4 16.6h.1c.4-2.1.8-4.1 3.7-16.6h4.8l-6.4 22.7h-4.5c-2.3-11.1-2.7-13.3-3.5-17.7h-.1c-.7 4.4-1.1 6-3.5 17.7h-4.4z" class="st0"/></g><g transform="translate(-4.8 -5.5)" id="g4985"><path id="path4983" d="M40.3 41.2c-4.1 0-7.8-2.5-7.8-8s3.7-8 7.8-8 7.8 2.5 7.8 8-3.7 8-7.8 8zm0-12.7c-3.1 0-3.7 2.7-3.7 4.7s.6 4.6 3.7 4.6 3.7-2.7 3.7-4.6c0-1.9-.6-4.7-3.7-4.7z" class="st0"/></g><g transform="translate(-4.8 -5.5)" id="g4989"><path id="path4987" d="M58 41.2c-4.1 0-7.8-2.5-7.8-8s3.7-8 7.8-8 7.8 2.5 7.8 8-3.7 8-7.8 8zm0-12.7c-3.1 0-3.7 2.7-3.7 4.7s.6 4.6 3.7 4.6 3.7-2.7 3.7-4.6c0-1.9-.6-4.7-3.7-4.7z" class="st0"/></g><g transform="translate(-4.8 -5.5)" id="g4993"><path id="path4991" d="M82.8 40.8h-3.9v-1.9h-.1c-1 1.7-2.8 2.3-4.4 2.3-4.5 0-6.4-4-6.4-8.2 0-5.3 3-7.9 6.3-7.9 2.6 0 3.8 1.4 4.4 2.4h.1v-7.3h4zm-7.4-2.9c2.6 0 3.6-2.1 3.6-4.4 0-2.4-.7-4.9-3.4-4.9-2.6 0-3.4 2.3-3.4 4.7-.1 1.8.6 4.6 3.2 4.6z" class="st0"/></g><g transform="translate(-4.8 -5.5)" id="g4997"><path id="path4995" d="M99.6 36.3c-1.1 3.7-4.1 4.9-6.7 4.9-4.3 0-7.6-2.1-7.6-8.4 0-1.8.6-7.7 7.3-7.7 3 0 7.2 1.4 7.2 8.4v.7H89.3c.1 1.1.3 3.7 3.6 3.7 1.1 0 2.3-.6 2.6-1.7h4.1zm-3.9-4.7c-.2-2.5-1.8-3.2-3.1-3.2-1.9 0-2.9 1.2-3.1 3.2z" class="st0"/></g><g transform="translate(-4.8 -5.5)" id="g5001"><path id="path4999" d="M116.5 40.8h-4v-9.3c0-1.1-.1-3-2.6-3-1.8 0-3.2 1.2-3.2 3.5v8.8h-4V25.5h3.8v2.2h.1c.5-.9 1.7-2.6 4.6-2.6 3 0 5.3 1.8 5.3 5.1z" class="st0"/></g><g transform="translate(-4.8 -5.5)" id="g5005"><path id="path5003" d="M128.5 34.8c0 1.1.6 3.3 4.4 3.3 2 0 4.3-.5 4.3-2.7 0-1.6-1.5-2-3.7-2.6l-2.2-.5c-3.3-.8-6.5-1.5-6.5-6.1 0-2.3 1.2-6.3 7.9-6.3 6.3 0 8 4.1 8 6.7h-4.1c-.1-.9-.5-3.1-4.2-3.1-1.6 0-3.6.6-3.6 2.5 0 1.6 1.3 2 2.2 2.2l5 1.2c2.8.7 5.4 1.8 5.4 5.5 0 6.2-6.3 6.7-8.1 6.7-7.5 0-8.8-4.3-8.8-6.9h4z" class="st0"/></g><g transform="translate(-4.8 -5.5)" id="g5009"><path id="path5007" d="M149 25.9h2.5v2.9H149v8.3c0 .9 0 1.2 1.7 1.2.3 0 .5 0 .8-.1v3c-.6 0-1.3.1-1.9.1h-.5c-3.5 0-4.1-1.3-4.1-3.3v-9.3h-2.1v-2.9h2.1v-4.1h4z" class="st0"/></g><g transform="translate(-4.8 -5.5)" id="g5013"><path id="path5011" d="M154.2 25.9h3.8v2.6h.1c.8-1.6 1.8-3 4.2-3 .3 0 .5 0 .8.1v4.1c-.3-.1-.8-.1-1.1-.1-3.1 0-3.7 2-3.7 3.6v8h-4V25.9z" class="st0"/></g><g transform="translate(-4.8 -5.5)" id="g5017"><path id="path5015" d="M178.6 36.7c-1.1 3.7-4.1 4.9-6.7 4.9-4.3 0-7.6-2.1-7.6-8.4 0-1.8.6-7.7 7.3-7.7 3 0 7.2 1.4 7.2 8.4v.7h-10.5c.1 1.1.3 3.7 3.6 3.7 1.1 0 2.3-.6 2.6-1.7h4.1zm-3.9-4.7c-.2-2.5-1.8-3.2-3.1-3.2-1.9 0-2.9 1.2-3.1 3.2z" class="st0"/></g><g transform="translate(-4.8 -5.5)" id="g5021"><path id="path5019" d="M194.8 36.7c-1.1 3.7-4.1 4.9-6.7 4.9-4.3 0-7.6-2.1-7.6-8.4 0-1.8.6-7.7 7.3-7.7 3 0 7.2 1.4 7.2 8.4v.7h-10.5c.1 1.1.3 3.7 3.6 3.7 1.1 0 2.3-.6 2.6-1.7h4.1zm-4-4.7c-.2-2.5-1.8-3.2-3.1-3.2-1.9 0-2.9 1.2-3.1 3.2z" class="st0"/></g><g transform="translate(-4.8 -5.5)" id="g5025"><path id="path5023" d="M202.3 25.9h2.5v2.9h-2.5v8.3c0 .9 0 1.2 1.7 1.2.3 0 .5 0 .8-.1v3c-.6 0-1.3.1-1.9.1h-.5c-3.5 0-4.1-1.3-4.1-3.3v-9.3h-2.1v-2.9h2.1v-4.1h4z" class="st0"/></g><g transform="translate(-4.8 -5.5)" id="g5029"><path id="path5027" d="M16 56.3h-2.1v2.3c0 .5.1.8.2 1 .1.2.4.3.7.3v.2h-2.9v-.2c.3 0 .6-.1.7-.3.1-.2.2-.5.2-1v-4.9c0-.5-.1-.8-.2-1-.1-.2-.4-.3-.7-.3v-.2h5.4v1.4h-.2c-.1-.4-.2-.7-.3-.8-.1-.1-.5-.2-1-.2h-2v3.3H16c.3 0 .5-.1.6-.2.1-.1.2-.4.3-.7h.2v2.2h-.2c-.1-.6-.4-.9-.9-.9z" class="st1"/></g><g transform="translate(-4.8 -5.5)" id="g5033"><path id="path5031" d="M24.7 55.1h.2v4.1c0 .3.1.5.2.5.1.1.3.1.7.1v.2l-1.8.2v-.9c-.5.6-1.1 1-1.7 1-.5 0-.9-.2-1.2-.5-.3-.3-.4-.7-.4-1.2v-2.5c0-.3-.1-.4-.2-.5-.1-.1-.4-.1-.7-.1v-.2l1.6-.1h.2v3.5c0 .3.1.6.3.8.2.2.5.3.8.3.5 0 .9-.3 1.3-.8v-2.6c0-.3-.1-.6-.2-.6-.1-.1-.4-.1-.8-.1v-.2z" class="st1"/></g><g transform="translate(-4.8 -5.5)" id="g5037"><path id="path5035" d="M29.8 55.1v1.1c.5-.4.8-.7 1.1-.8.3-.2.5-.2.6-.2.3 0 .6.1.9.4l-.4.7c-.5-.3-.9-.4-1.2-.4-.3 0-.6.2-1 .6v2.7c0 .3.1.5.2.5.1.1.3.1.6.1v.2H28v-.2c.3 0 .6-.1.7-.2.1-.1.2-.4.2-.8v-2.7c0-.3-.1-.6-.2-.7-.1-.1-.4-.1-.8-.1v-.2l1.7-.1h.2z" class="st1"/></g><g transform="translate(-4.8 -5.5)" id="g5041"><path id="path5039" d="M36.6 55.1v1c.6-.7 1.2-1 1.8-1 .5 0 .9.2 1.2.5.3.3.5.7.5 1.3V59c0 .3.1.6.2.7.1.1.3.2.7.2v.2h-2.6v-.2c.3 0 .5 0 .7-.1.1-.1.2-.2.2-.5v-2.6c0-.3-.1-.6-.3-.8-.2-.2-.5-.3-.8-.3-.5 0-.9.3-1.4 1V59c0 .4.1.7.2.8.1.1.3.2.7.2v.2h-2.6V60c.4 0 .6-.1.7-.2.1-.1.1-.4.1-.8v-2.8c0-.3-.1-.5-.2-.6-.1-.1-.3-.1-.7-.1v-.2l1.5-.1h.1z" class="st1"/></g><g transform="translate(-4.8 -5.5)" id="g5045"><path id="path5043" d="M44.7 55.1h.2v4.1c0 .3.1.5.2.5.1.1.3.1.6.1v.2H43v-.2c.4 0 .6 0 .8-.1.1-.1.2-.3.2-.5v-3c0-.3-.1-.5-.2-.6-.1-.1-.4-.1-.8-.1v-.2zm-.2-2.6c.2 0 .3.1.4.2.1.1.2.3.2.4 0 .2-.1.3-.2.4-.1.1-.3.2-.4.2-.2 0-.3-.1-.4-.2-.1-.1-.2-.3-.2-.4 0-.2.1-.3.2-.4.1-.1.2-.2.4-.2z" class="st1"/></g><g transform="translate(-4.8 -5.5)" id="g5049"><path id="path5047" d="M49.7 53.5h.2v1.6h1.7v.4h-1.7v3.2c0 .3.1.6.2.8.2.2.4.3.7.3.3 0 .6-.2.9-.5l.2.2c-.4.5-.9.8-1.5.8-.4 0-.8-.1-1-.4-.3-.3-.4-.6-.4-1v-3.3h-.9v-.2c.7-.4 1.2-1 1.6-1.9z" class="st1"/></g><g transform="translate(-4.8 -5.5)" id="g5053"><path id="path5051" d="M58.8 55.1h.2v4.1c0 .3.1.5.2.5.1.1.3.1.7.1v.2l-1.8.1v-.9c-.5.6-1.1 1-1.7 1-.5 0-.9-.2-1.2-.5-.3-.3-.4-.7-.4-1.2V56c0-.3-.1-.4-.2-.5-.1-.1-.4-.1-.7-.1v-.2l1.6-.1h.2v3.5c0 .3.1.6.3.8.2.2.5.3.8.3.5 0 .9-.3 1.3-.8v-2.6c0-.3-.1-.6-.2-.6-.1-.1-.4-.1-.8-.1v-.2z" class="st1"/></g><g transform="translate(-4.8 -5.5)" id="g5057"><path id="path5055" d="M63.9 55.1v1.1c.5-.4.8-.7 1.1-.8.3-.2.5-.2.6-.2.3 0 .6.1.9.4l-.4.9c-.5-.3-.9-.4-1.2-.4-.3 0-.6.2-1 .6v2.7c0 .3.1.5.2.5.1.1.3.1.6.1v.2h-2.6V60c.3 0 .6-.1.7-.2.1-.1.2-.4.2-.8v-2.7c0-.3-.1-.6-.2-.7-.1-.1-.4-.1-.8-.1v-.2l1.7-.1h.2z" class="st1"/></g><g transform="translate(-4.8 -5.5)" id="g5061"><path id="path5059" d="M73.4 58.8v.4c-.3.4-.6.6-.9.8-.3.2-.7.2-1.1.2-.8 0-1.4-.2-1.9-.7-.5-.5-.7-1.1-.7-1.8s.2-1.4.7-1.9c.5-.5 1.1-.8 1.7-.8.6 0 1.1.2 1.5.6.4.4.6.8.6 1.4v.1h-3.6v.1c0 .5.1 1 .2 1.4.2.4.4.7.7.9.3.2.6.3 1 .3.3 0 .6-.1.8-.2.4-.1.7-.4 1-.8zm-3.6-1.9h2.7v-.1c0-.4-.1-.8-.4-1-.3-.3-.6-.4-.9-.4-.4 0-.7.1-1 .4-.3.2-.4.6-.4 1.1z" class="st1"/></g><g transform="translate(-4.8 -5.5)" id="g5065"><path id="path5063" d="M77.5 59.1c.2 0 .3.1.5.2.1.1.2.3.2.5s-.1.3-.2.5c-.1.1-.3.2-.5.2s-.3-.1-.5-.2c-.1-.1-.2-.3-.2-.5s.1-.3.2-.5c.1-.1.3-.2.5-.2z" class="st1"/></g><g transform="translate(-4.8 -5.5)" id="g5069"><path id="path5067" d="M83.3 59.1c.2 0 .3.1.5.2.1.1.2.3.2.5s-.1.3-.2.5c-.1.1-.3.2-.5.2s-.3-.1-.5-.2c-.1-.1-.2-.3-.2-.5s.1-.3.2-.5c.2-.1.3-.2.5-.2z" class="st1"/></g><g transform="translate(-4.8 -5.5)" id="g5073"><path id="path5071" d="M89.2 59.1c.2 0 .3.1.5.2.1.1.2.3.2.5s-.1.3-.2.5c-.1.1-.3.2-.5.2s-.3-.1-.5-.2c-.1-.1-.2-.3-.2-.5s.1-.3.2-.5c.1-.1.3-.2.5-.2z" class="st1"/></g><g transform="translate(-4.8 -5.5)" id="g5077"><path id="path5075" d="M94.5 51.4h.2v4.4c.2-.2.5-.4.8-.5.3-.1.6-.2.9-.2.6 0 1.2.2 1.6.7.4.5.7 1 .7 1.7 0 .8-.3 1.4-.9 1.9-.6.5-1.4.8-2.5.8-.4 0-.9 0-1.5-.1v-7.4c0-.4 0-.6-.1-.7-.1-.1-.3-.1-.7-.1v-.2zm.3 4.7v2.8c0 .4.1.6.2.8.1.1.3.2.6.2.6 0 1.1-.2 1.5-.6.4-.4.6-1 .6-1.7 0-.6-.2-1.1-.5-1.5-.3-.4-.7-.6-1.2-.6-.4 0-.8.2-1.2.6z" class="st1"/></g><g transform="translate(-4.8 -5.5)" id="g5081"><path id="path5079" d="M106.8 57.7c0 .7-.3 1.4-.8 1.8-.5.5-1.2.7-1.9.7-.8 0-1.4-.2-1.9-.7-.5-.5-.8-1.1-.8-1.8s.3-1.4.8-1.9 1.1-.7 1.9-.7c.8 0 1.4.2 1.9.7.6.5.8 1.1.8 1.9zm-1 0c0-.7-.1-1.3-.4-1.7-.3-.4-.7-.6-1.2-.6s-.9.2-1.2.6c-.3.4-.4 1-.4 1.7s.1 1.3.4 1.7c.3.4.7.6 1.2.6s.9-.2 1.2-.6c.3-.5.4-1 .4-1.7z" class="st1"/></g><g transform="translate(-4.8 -5.5)" id="g5085"><path id="path5083" d="M111 55.1v1c.6-.7 1.2-1 1.8-1 .5 0 .9.2 1.2.5.3.3.5.7.5 1.3V59c0 .3.1.6.2.7.1.1.3.2.7.2v.2h-2.6v-.2c.3 0 .5 0 .7-.1.1-.1.2-.2.2-.5v-2.6c0-.3-.1-.6-.3-.8-.2-.2-.5-.3-.8-.3-.5 0-.9.3-1.4 1V59c0 .4.1.7.2.8.1.1.3.2.7.2v.2h-2.6V60c.4 0 .6-.1.7-.2.1-.1.1-.4.1-.8v-2.8c0-.3-.1-.5-.2-.6-.1-.1-.3-.1-.7-.1v-.2l1.5-.1h.1z" class="st1"/></g><g transform="translate(-4.8 -5.5)" id="g5089"><path id="path5087" d="M122.3 51.4h.2v7.7c0 .3.1.5.2.6.1.1.3.2.6.2v.2h-2.9c-.9 0-1.6-.2-2.1-.7-.5-.5-.8-1.1-.8-1.8s.2-1.3.7-1.8c.4-.5 1-.7 1.6-.7.5 0 1.1.2 1.6.6v-3c0-.3 0-.6-.1-.7-.1-.1-.3-.2-.5-.2h-.3v-.2zm-.7 7.7v-3c-.2-.3-.4-.5-.7-.6-.3-.1-.5-.2-.8-.2-.4 0-.8.2-1.1.6-.3.4-.4.8-.4 1.4 0 .8.2 1.4.6 1.8.4.5.9.7 1.6.7.3 0 .5-.1.6-.2.2 0 .2-.2.2-.5z" class="st1"/></g><g transform="translate(-4.8 -5.5)" id="g5093"><path id="path5091" d="M130.6 58.8v.4c-.3.4-.6.6-.9.8-.3.2-.7.2-1.1.2-.8 0-1.4-.2-1.9-.7-.5-.5-.7-1.1-.7-1.8s.2-1.4.7-1.9c.5-.5 1.1-.8 1.7-.8.6 0 1.1.2 1.5.6.4.4.6.8.6 1.4v.1h-3.6v.1c0 .5.1 1 .2 1.4.2.4.4.7.7.9.3.2.6.3 1 .3.3 0 .6-.1.8-.2.3-.1.6-.4 1-.8zm-3.7-1.9h2.7v-.1c0-.4-.1-.8-.4-1-.3-.3-.6-.4-.9-.4-.4 0-.7.1-1 .4-.2.2-.4.6-.4 1.1z" class="st1"/></g><g transform="translate(-4.8 -5.5)" id="g5097"><path id="path5095" d="M137.9 51.4h.2v7.7c0 .3.1.5.2.6.1.1.3.2.6.2v.2H136c-.9 0-1.6-.2-2.1-.7-.5-.5-.8-1.1-.8-1.8s.2-1.3.7-1.8c.4-.5 1-.7 1.6-.7.5 0 1.1.2 1.6.6v-3c0-.3 0-.6-.1-.7-.1-.1-.3-.2-.5-.2h-.3v-.2zm-.7 7.7v-3c-.2-.3-.4-.5-.7-.6-.3-.1-.5-.2-.8-.2-.4 0-.8.2-1.1.6-.3.4-.4.8-.4 1.4 0 .8.2 1.4.6 1.8.4.5.9.7 1.6.7.3 0 .5-.1.6-.2.1 0 .2-.2.2-.5z" class="st1"/></g><g transform="translate(-4.8 -5.5)" id="g5101"><path id="path5099" d="M146.5 55.2v.2c-.3 0-.5.1-.5.3 0 .1 0 .2.1.4l1.1 2.7 1.1-3c-.1-.2-.2-.3-.3-.4-.1-.1-.2-.1-.4-.1v-.2h2.4v.2c-.4 0-.6.1-.6.4 0 .1 0 .2.1.3l1.1 2.8 1-2.6c.1-.2.1-.4.1-.5 0-.3-.2-.4-.6-.4v-.2h1.9v.2c-.3 0-.6.1-.7.2-.1.1-.3.4-.4.7l-1.5 3.9h-.2l-1.6-3.9-1.5 3.9h-.2l-1.7-4.2c-.1-.4-.4-.5-.9-.5v-.2z" class="st1"/></g><g transform="translate(-4.8 -5.5)" id="g5105"><path id="path5103" d="M156.8 55.1h.2v4.1c0 .3.1.5.2.5.1.1.3.1.6.1v.2h-2.7v-.2c.4 0 .6 0 .8-.1.1-.1.2-.3.2-.5v-3c0-.3-.1-.5-.2-.6-.1-.1-.4-.1-.8-.1v-.2zm-.2-2.6c.2 0 .3.1.4.2.1.1.2.3.2.4 0 .2-.1.3-.2.4-.1.1-.3.2-.4.2-.2 0-.3-.1-.4-.2-.1-.1-.2-.3-.2-.4 0-.2.1-.3.2-.4.1-.1.2-.2.4-.2z" class="st1"/></g><g transform="translate(-4.8 -5.5)" id="g5109"><path id="path5107" d="M161.8 53.5h.2v1.6h1.7v.4H162v3.2c0 .3.1.6.2.8.2.2.4.3.7.3.3 0 .6-.2.9-.5l.2.2c-.4.5-.9.8-1.5.8-.4 0-.8-.1-1-.4-.3-.3-.4-.6-.4-1v-3.3h-.9v-.2c.7-.4 1.2-1 1.6-1.9z" class="st1"/></g><g transform="translate(-4.8 -5.5)" id="g5113"><path id="path5111" d="M170.1 59.1v-2.4c0-.3-.1-.6-.3-.8-.2-.2-.4-.3-.7-.3-.3 0-.5.1-.7.2-.2.1-.4.4-.7.7v2.7c0 .3.1.4.2.5.1.1.3.1.6.1v.2h-2.6v-.2c.4 0 .6-.1.7-.2.1-.1.2-.4.2-.8v-6.4c0-.3-.1-.5-.2-.6-.1-.1-.3-.1-.7-.1v-.2l1.6-.2h.2V56c.3-.4.6-.6.9-.8.3-.1.5-.2.9-.2.5 0 .9.2 1.2.5.3.3.5.7.5 1.2v2.2c0 .4.1.6.2.8.1.1.3.2.6.2v.2h-2.5v-.2c.3 0 .6-.1.7-.2-.2-.1-.1-.3-.1-.6z" class="st1"/></g><g transform="translate(-4.8 -5.5)" id="g5117"><path id="path5115" d="M179.6 59.9h.1v.2H177v-.2h.3c.3 0 .4-.1.5-.2.1-.1.1-.4.1-.7v-6.5c0-.3 0-.4-.1-.5-.1-.1-.3-.1-.5-.1h-.3v-.2l1.7-.2h.2v7.8c0 .3.1.4.2.5 0 0 .2.1.5.1z" class="st1"/></g><g transform="translate(-4.8 -5.5)" id="g5121"><path id="path5119" d="M187.6 57.7c0 .7-.3 1.4-.8 1.8-.5.4-1.2.7-1.9.7-.8 0-1.4-.2-1.9-.7-.5-.5-.8-1.1-.8-1.8s.3-1.4.8-1.9 1.1-.7 1.9-.7c.8 0 1.4.2 1.9.7.6.5.8 1.1.8 1.9zm-1 0c0-.7-.1-1.3-.4-1.7-.3-.4-.7-.6-1.2-.6s-.9.2-1.2.6c-.3.4-.4 1-.4 1.7s.1 1.3.4 1.7c.3.4.7.6 1.2.6s.9-.2 1.2-.6c.3-.5.4-1 .4-1.7z" class="st1"/></g><g transform="translate(-4.8 -5.5)" id="g5125"><path id="path5123" d="M192.1 55.2v.2c-.3 0-.5.2-.5.4 0 .1 0 .3.1.4l1.1 2.6 1-2.5c.1-.2.1-.4.1-.6 0-.2-.2-.4-.6-.4v-.2h1.8v.2c-.3 0-.5.1-.6.2-.1.1-.2.3-.3.5l-1.6 4.1h-.2l-1.6-3.8c-.2-.4-.3-.6-.4-.7-.1-.1-.3-.2-.6-.2v-.2z" class="st1"/></g><g transform="translate(-4.8 -5.5)" id="g5129"><path id="path5127" d="M202 58.8v.4c-.3.4-.6.6-.9.8-.3.2-.7.2-1.1.2-.8 0-1.4-.2-1.9-.7-.5-.5-.7-1.1-.7-1.8s.2-1.4.7-1.9c.5-.5 1.1-.8 1.7-.8.6 0 1.1.2 1.5.6.4.4.6.8.6 1.4v.1h-3.6v.1c0 .5.1 1 .2 1.4.2.4.4.7.7.9.3.2.6.3 1 .3.3 0 .6-.1.8-.2.3-.1.6-.4 1-.8zm-3.7-1.9h2.7v-.1c0-.4-.1-.8-.4-1-.3-.3-.6-.4-.9-.4-.4 0-.7.1-1 .4-.2.2-.4.6-.4 1.1z" class="st1"/></g><g transform="translate(-4.8 -5.5)" id="g5649"><defs id="defs5132"><path id="SVGID_1_" d="M174.1 5.5l.6.4 19.5 11.9-1.2 2.1-18.9-11.5-18.9 11.5-1.1-2.2 19.4-11.8z"/></defs><clipPath id="SVGID_2_"><use height="100%" width="100%" y="0" x="0" id="use5134" xlink:href="#SVGID_1_" overflow="visible"/></clipPath><path id="polyline5137" clip-path="url(#SVGID_2_)" class="st2" d="M194.3 17.8l-.7 1.1L164.9.7l.7-1.1"/><path id="polyline5139" clip-path="url(#SVGID_2_)" class="st2" d="M193.6 18.9l-.1.1L164.8.8l.1-.1"/><path id="polyline5141" clip-path="url(#SVGID_2_)" class="st2" d="M193.6 19l-.1.1L164.8.9l.1-.2"/><path id="polyline5143" clip-path="url(#SVGID_2_)" class="st2" d="M193.5 19l-.1.1L164.8.9V.8"/><path id="polyline5145" clip-path="url(#SVGID_2_)" class="st3" d="M193.5 19.1l-.1.1L164.7 1l.1-.1"/><path id="polyline5147" clip-path="url(#SVGID_2_)" class="st3" d="M193.4 19.2v.1L164.7 1.1V1"/><path id="polyline5149" clip-path="url(#SVGID_2_)" class="st4" d="M193.4 19.2l-.1.1-28.7-18.2.1-.1"/><path id="polyline5151" clip-path="url(#SVGID_2_)" class="st4" d="M193.3 19.3v.1L164.6 1.2l.1-.1"/><path id="polyline5153" clip-path="url(#SVGID_2_)" class="st4" d="M193.3 19.4l-.1.1-28.7-18.2.1-.1"/><path id="polyline5155" clip-path="url(#SVGID_2_)" class="st4" d="M193.3 19.4l-.1.1-28.7-18.2.1-.1"/><path id="polyline5157" clip-path="url(#SVGID_2_)" class="st4" d="M193.2 19.5l-.1.1-28.6-18.2v-.1"/><path id="polyline5159" clip-path="url(#SVGID_2_)" class="st5" d="M193.2 19.6l-.1.1-28.7-18.2.1-.1"/><path id="polyline5161" clip-path="url(#SVGID_2_)" class="st5" d="M193.1 19.6v.1L164.4 1.5v-.1"/><path id="polyline5163" clip-path="url(#SVGID_2_)" class="st5" d="M193.1 19.7l-.1.1-28.7-18.2.1-.1"/><path id="polyline5165" clip-path="url(#SVGID_2_)" class="st5" d="M193 19.8v.1L164.3 1.7v-.1"/><path id="polyline5167" clip-path="url(#SVGID_2_)" class="st5" d="M193 19.8l-.1.1-28.7-18.2.1-.1"/><path id="polyline5169" clip-path="url(#SVGID_2_)" class="st6" d="M192.9 19.9v.1L164.2 1.8l.1-.1"/><path id="polyline5171" clip-path="url(#SVGID_2_)" class="st6" d="M192.9 20l-.1.1-28.6-18.2v-.1"/><path id="polyline5173" clip-path="url(#SVGID_2_)" class="st7" d="M192.9 20.1l-.1.1-28.7-18.3.1-.1"/><path id="polyline5175" clip-path="url(#SVGID_2_)" class="st7" d="M192.8 20.1v.1L164.1 2v-.1"/><path id="polyline5177" clip-path="url(#SVGID_2_)" class="st7" d="M192.8 20.2l-.1.1L164 2.1l.1-.1"/><path id="polyline5179" clip-path="url(#SVGID_2_)" class="st7" d="M192.7 20.3v.1L164 2.2V2"/><path id="polyline5181" clip-path="url(#SVGID_2_)" class="st7" d="M192.7 20.3l-.1.1-28.7-18.2.1-.1"/><path id="polyline5183" clip-path="url(#SVGID_2_)" class="st7" d="M192.6 20.4v.1L163.9 2.3l.1-.1"/><path id="polyline5185" clip-path="url(#SVGID_2_)" class="st7" d="M192.6 20.5l-.1.1-28.7-18.2.1-.1"/><path id="polyline5187" clip-path="url(#SVGID_2_)" fill="#ea5b44" d="M192.6 20.5l-.1.1-28.7-18.2.1-.1"/><path id="polyline5189" clip-path="url(#SVGID_2_)" class="st9" d="M192.5 20.6l-.1.1-28.6-18.2v-.1"/><path id="polyline5191" clip-path="url(#SVGID_2_)" class="st9" d="M192.5 20.7l-.1.1-28.7-18.2.1-.1"/><path id="polyline5193" clip-path="url(#SVGID_2_)" class="st9" d="M192.4 20.7v.1L163.7 2.6v-.1"/><path id="polyline5195" clip-path="url(#SVGID_2_)" class="st9" d="M192.4 20.8l-.1.1-28.7-18.2.1-.1"/><path id="polyline5197" clip-path="url(#SVGID_2_)" class="st9" d="M192.3 20.9v.1L163.6 2.8l.1-.1"/><path id="polyline5199" clip-path="url(#SVGID_2_)" class="st9" d="M192.3 20.9l-.1.1-28.7-18.2.1-.1"/><path id="polyline5201" clip-path="url(#SVGID_2_)" class="st9" d="M192.3 21l-.1.1-28.7-18.2.1-.1"/><path id="polyline5203" clip-path="url(#SVGID_2_)" class="st10" d="M192.2 21.1l-.1.1L163.5 3v-.1"/><path id="polyline5205" clip-path="url(#SVGID_2_)" class="st10" d="M192.2 21.1l-.1.2L163.4 3l.1-.1"/><path id="polyline5207" clip-path="url(#SVGID_2_)" class="st10" d="M192.1 21.2v.1L163.4 3.1V3"/><path id="polyline5209" clip-path="url(#SVGID_2_)" class="st11" d="M192.1 21.3l-.1.1-28.7-18.2.1-.1"/><path id="polyline5211" clip-path="url(#SVGID_2_)" class="st11" d="M192 21.4v.1L163.3 3.2l.1-.1"/><path id="polyline5213" clip-path="url(#SVGID_2_)" class="st11" d="M192 21.4l-.1.1-28.7-18.2.1-.1"/><path id="polyline5215" clip-path="url(#SVGID_2_)" class="st11" d="M191.9 21.5v.1L163.2 3.4l.1-.1"/><path id="polyline5217" clip-path="url(#SVGID_2_)" class="st12" d="M191.9 21.6l-.1.1-28.6-18.2v-.1"/><path id="polyline5219" clip-path="url(#SVGID_2_)" class="st12" d="M191.9 21.6l-.1.1-28.7-18.2.1-.1"/><path id="polyline5221" clip-path="url(#SVGID_2_)" class="st12" d="M191.8 21.7v.1L163.1 3.6v-.1"/><path id="polyline5223" clip-path="url(#SVGID_2_)" class="st12" d="M191.8 21.8l-.1.1L163 3.7l.1-.1"/><path id="polyline5225" clip-path="url(#SVGID_2_)" class="st12" d="M191.7 21.8v.1L163 3.7v-.1"/><path id="polyline5227" clip-path="url(#SVGID_2_)" class="st12" d="M191.7 21.9l-.1.1-28.7-18.2.1-.1"/><path id="polyline5229" clip-path="url(#SVGID_2_)" fill="#ea5d41" d="M191.6 22v.1L162.9 3.9l.1-.1"/><path id="polyline5231" clip-path="url(#SVGID_2_)" class="st14" d="M191.6 22l-.1.1-28.6-18.2v-.1"/><path id="polyline5233" clip-path="url(#SVGID_2_)" class="st14" d="M191.6 22.1l-.1.1L162.8 4l.1-.1"/><path id="polyline5235" clip-path="url(#SVGID_2_)" class="st14" d="M191.5 22.2l-.1.1-28.6-18.2V4"/><path id="polyline5237" clip-path="url(#SVGID_2_)" class="st14" d="M191.5 22.2l-.1.1-28.7-18.2.1-.1"/><path id="polyline5239" clip-path="url(#SVGID_2_)" class="st14" d="M191.4 22.3v.1L162.7 4.2v-.1"/><path id="polyline5241" clip-path="url(#SVGID_2_)" class="st14" d="M191.4 22.4l-.1.1-28.7-18.2.1-.1"/><path id="polyline5243" clip-path="url(#SVGID_2_)" class="st14" d="M191.3 22.4v.2L162.6 4.3l.1-.1"/><path id="polyline5245" clip-path="url(#SVGID_2_)" class="st15" d="M191.3 22.5l-.1.1-28.7-18.2.1-.1"/><path id="polyline5247" clip-path="url(#SVGID_2_)" class="st15" d="M191.3 22.6l-.1.1-28.7-18.2.1-.1"/><path id="polyline5249" clip-path="url(#SVGID_2_)" class="st16" d="M191.2 22.7l-.1.1-28.6-18.3v-.1"/><path id="polyline5251" clip-path="url(#SVGID_2_)" class="st16" d="M191.2 22.7l-.1.1-28.7-18.2.1-.1"/><path id="polyline5253" clip-path="url(#SVGID_2_)" class="st16" d="M191.1 22.8v.1L162.4 4.7v-.1"/><path id="polyline5255" clip-path="url(#SVGID_2_)" class="st16" d="M191.1 22.9l-.1.1-28.7-18.2.1-.1"/><path id="polyline5257" clip-path="url(#SVGID_2_)" class="st16" d="M191 22.9v.1L162.3 4.8l.1-.1"/><path id="polyline5259" clip-path="url(#SVGID_2_)" class="st17" d="M191 23l-.1.1-28.7-18.2.1-.1"/><path id="polyline5261" clip-path="url(#SVGID_2_)" class="st17" d="M190.9 23.1v.1L162.2 5l.1-.1"/><path id="polyline5263" clip-path="url(#SVGID_2_)" class="st17" d="M190.9 23.1l-.1.1L162.2 5v-.1"/><path id="polyline5265" clip-path="url(#SVGID_2_)" class="st17" d="M190.9 23.2l-.1.1-28.7-18.2.1-.1"/><path id="polyline5267" clip-path="url(#SVGID_2_)" class="st17" d="M190.8 23.3v.1L162.1 5.2v-.1"/><path id="polyline5269" clip-path="url(#SVGID_2_)" class="st18" d="M190.8 23.3l-.1.1L162 5.2l.1-.1"/><path id="polyline5271" clip-path="url(#SVGID_2_)" class="st18" d="M190.7 23.4v.1L162 5.3v-.1"/><path id="polyline5273" clip-path="url(#SVGID_2_)" class="st19" d="M190.7 23.5l-.1.1-28.7-18.2.1-.1"/><path id="polyline5275" clip-path="url(#SVGID_2_)" class="st19" d="M190.6 23.5v.1L161.9 5.4l.1-.1"/><path id="polyline5277" clip-path="url(#SVGID_2_)" class="st19" d="M190.6 23.6l-.1.1-28.6-18.2v-.1"/><path id="polyline5279" clip-path="url(#SVGID_2_)" class="st19" d="M190.6 23.7l-.1.1-28.7-18.2.1-.1"/><path id="polyline5281" clip-path="url(#SVGID_2_)" class="st19" d="M190.5 23.8l-.1.1-28.6-18.3v-.1"/><path id="polyline5283" clip-path="url(#SVGID_2_)" class="st19" d="M190.5 23.8l-.1.1-28.7-18.2.1-.1"/><path id="polyline5285" clip-path="url(#SVGID_2_)" class="st19" d="M190.4 23.9v.1L161.7 5.8v-.1"/><path id="polyline5287" clip-path="url(#SVGID_2_)" fill="#ea623f" d="M190.4 24l-.1.1-28.7-18.2.1-.2"/><path id="polyline5289" clip-path="url(#SVGID_2_)" class="st21" d="M190.3 24v.1L161.6 5.9l.1-.1"/><path id="polyline5291" clip-path="url(#SVGID_2_)" class="st21" d="M190.3 24.1l-.1.1L161.5 6l.1-.1"/><path id="polyline5293" clip-path="url(#SVGID_2_)" class="st21" d="M190.3 24.2l-.1.1-28.7-18.2.1-.1"/><path id="polyline5295" clip-path="url(#SVGID_2_)" class="st21" d="M190.2 24.2l-.1.1-28.6-18.2V6"/><path id="polyline5297" clip-path="url(#SVGID_2_)" class="st21" d="M190.2 24.3l-.1.1-28.7-18.2.1-.1"/><path id="polyline5299" clip-path="url(#SVGID_2_)" class="st22" d="M190.1 24.4v.1L161.4 6.3v-.1"/><path id="polyline5301" clip-path="url(#SVGID_2_)" class="st22" d="M190.1 24.4l-.1.1-28.7-18.2.1-.1"/><path id="polyline5303" clip-path="url(#SVGID_2_)" class="st23" d="M190 24.5v.1L161.3 6.4l.1-.1"/><path id="polyline5305" clip-path="url(#SVGID_2_)" class="st23" d="M190 24.6l-.1.1-28.7-18.2.1-.1"/><path id="polyline5307" clip-path="url(#SVGID_2_)" class="st23" d="M189.9 24.6v.1L161.2 6.5l.1-.1"/><path id="polyline5309" clip-path="url(#SVGID_2_)" class="st24" d="M189.9 24.7l-.1.1-28.6-18.2v-.1"/><path id="polyline5311" clip-path="url(#SVGID_2_)" class="st24" d="M189.9 24.8l-.1.1-28.7-18.2.1-.1"/><path id="polyline5313" clip-path="url(#SVGID_2_)" class="st24" d="M189.8 24.8v.1L161.1 6.7v-.1"/><path id="polyline5315" clip-path="url(#SVGID_2_)" class="st24" d="M189.8 24.9l-.1.1L161 6.8l.1-.1"/><path id="polyline5317" clip-path="url(#SVGID_2_)" class="st25" d="M189.7 25v.1L161 6.9v-.1"/><path id="polyline5319" clip-path="url(#SVGID_2_)" class="st25" d="M189.7 25.1l-.1.1-28.7-18.3.1-.1"/><path id="polyline5321" clip-path="url(#SVGID_2_)" class="st25" d="M189.6 25.1v.1L160.9 7l.1-.1"/><path id="polyline5323" clip-path="url(#SVGID_2_)" class="st25" d="M189.6 25.2l-.1.1-28.6-18.2V7"/><path id="polyline5325" clip-path="url(#SVGID_2_)" class="st25" d="M189.6 25.3l-.1.1-28.7-18.2.1-.2"/><path id="polyline5327" clip-path="url(#SVGID_2_)" class="st25" d="M189.5 25.3l-.1.1-28.6-18.2v-.1"/><path id="polyline5329" clip-path="url(#SVGID_2_)" fill="#eb643c" d="M189.5 25.4l-.1.1-28.7-18.2.1-.1"/><path id="polyline5331" clip-path="url(#SVGID_2_)" class="st27" d="M189.4 25.5v.1L160.7 7.4v-.1"/><path id="polyline5333" clip-path="url(#SVGID_2_)" class="st27" d="M189.4 25.5l-.1.1-28.7-18.2.1-.1"/><path id="polyline5335" clip-path="url(#SVGID_2_)" class="st27" d="M189.3 25.6v.1L160.6 7.5l.1-.1"/><path id="polyline5337" clip-path="url(#SVGID_2_)" class="st27" d="M189.3 25.7l-.1.1-28.7-18.2.1-.1"/><path id="polyline5339" clip-path="url(#SVGID_2_)" class="st27" d="M189.3 25.7l-.1.1-28.7-18.2.1-.1"/><path id="polyline5341" clip-path="url(#SVGID_2_)" class="st27" d="M189.2 25.8l-.1.1-28.6-18.2v-.1"/><path id="polyline5343" clip-path="url(#SVGID_2_)" class="st27" d="M189.2 25.9l-.1.1-28.7-18.2.1-.1"/><path id="polyline5345" clip-path="url(#SVGID_2_)" class="st28" d="M189.1 25.9v.1L160.4 7.8v-.1"/><path id="polyline5347" clip-path="url(#SVGID_2_)" class="st28" d="M189.1 26l-.1.1-28.7-18.2.1-.1"/><path id="polyline5349" clip-path="url(#SVGID_2_)" class="st29" d="M189 26.1v.1L160.3 8l.1-.1"/><path id="polyline5351" clip-path="url(#SVGID_2_)" class="st29" d="M189 26.1l-.1.1L160.2 8l.1-.1"/><path id="polyline5353" clip-path="url(#SVGID_2_)" class="st29" d="M188.9 26.2v.1L160.2 8.1l.1-.1"/><path id="polyline5355" clip-path="url(#SVGID_2_)" class="st29" d="M188.9 26.3l-.1.1-28.6-18.2v-.1"/><path id="polyline5357" clip-path="url(#SVGID_2_)" class="st29" d="M188.9 26.4l-.1.1-28.7-18.3.1-.1"/><path id="polyline5359" clip-path="url(#SVGID_2_)" class="st30" d="M188.8 26.4v.1L160.1 8.3v-.1"/><path id="polyline5361" clip-path="url(#SVGID_2_)" class="st30" d="M188.8 26.5l-.1.1L160 8.4l.1-.1"/><path id="polyline5363" clip-path="url(#SVGID_2_)" class="st30" d="M188.7 26.6v.1L160 8.5v-.1"/><path id="polyline5365" clip-path="url(#SVGID_2_)" class="st30" d="M188.7 26.6l-.1.1-28.7-18.2.1-.1"/><path id="polyline5367" clip-path="url(#SVGID_2_)" class="st30" d="M188.6 26.7v.1L159.9 8.6l.1-.1"/><path id="polyline5369" clip-path="url(#SVGID_2_)" class="st31" d="M188.6 26.8l-.1.1-28.6-18.2v-.1"/><path id="polyline5371" clip-path="url(#SVGID_2_)" class="st31" d="M188.6 26.8l-.1.1-28.7-18.2.1-.1"/><path id="polyline5373" clip-path="url(#SVGID_2_)" class="st32" d="M188.5 26.9l-.1.1-28.6-18.2v-.1"/><path id="polyline5375" clip-path="url(#SVGID_2_)" class="st32" d="M188.5 27l-.1.1-28.7-18.2.1-.1"/><path id="polyline5377" clip-path="url(#SVGID_2_)" class="st32" d="M188.4 27v.1L159.7 8.9v-.1"/><path id="polyline5379" clip-path="url(#SVGID_2_)" class="st32" d="M188.4 27.1l-.1.1L159.6 9l.1-.1"/><path id="polyline5381" clip-path="url(#SVGID_2_)" class="st32" d="M188.3 27.2v.1L159.6 9.1l.1-.1"/><path id="polyline5383" clip-path="url(#SVGID_2_)" class="st32" d="M188.3 27.2l-.1.1-28.7-18.2.1-.1"/><path id="polyline5385" clip-path="url(#SVGID_2_)" class="st32" d="M188.3 27.3l-.1.1-28.7-18.2.1-.1"/><path id="polyline5387" clip-path="url(#SVGID_2_)" fill="#eb693a" d="M188.2 27.4l-.1.1-28.6-18.2v-.1"/><path id="polyline5389" clip-path="url(#SVGID_2_)" class="st34" d="M188.2 27.4l-.1.2-28.7-18.3.1-.1"/><path id="polyline5391" clip-path="url(#SVGID_2_)" class="st34" d="M188.1 27.5v.1L159.4 9.4v-.1"/><path id="polyline5393" clip-path="url(#SVGID_2_)" class="st34" d="M188.1 27.6l-.1.1-28.7-18.2.1-.1"/><path id="polyline5395" clip-path="url(#SVGID_2_)" class="st34" d="M188 27.7v.1L159.3 9.5l.1-.1"/><path id="polyline5397" clip-path="url(#SVGID_2_)" class="st34" d="M188 27.7l-.1.1-28.7-18.2.1-.1"/><path id="polyline5399" clip-path="url(#SVGID_2_)" class="st34" d="M187.9 27.8v.1L159.2 9.7l.1-.1"/><path id="polyline5401" clip-path="url(#SVGID_2_)" class="st34" d="M187.9 27.9l-.1.1-28.6-18.2v-.1"/><path id="polyline5403" clip-path="url(#SVGID_2_)" class="st35" d="M187.9 27.9l-.1.1-28.7-18.2.1-.1"/><path id="polyline5405" clip-path="url(#SVGID_2_)" class="st35" d="M187.8 28v.1L159.1 9.9v-.1"/><path id="polyline5407" clip-path="url(#SVGID_2_)" class="st35" d="M187.8 28.1l-.1.1L159 10l.1-.1"/><path id="polyline5409" clip-path="url(#SVGID_2_)" class="st36" d="M187.7 28.1v.1L159 10v-.1"/><path id="polyline5411" clip-path="url(#SVGID_2_)" class="st36" d="M187.7 28.2l-.1.1-28.7-18.2.1-.1"/><path id="polyline5413" clip-path="url(#SVGID_2_)" class="st36" d="M187.6 28.3v.1l-28.7-18.2.1-.1"/><path id="polyline5415" clip-path="url(#SVGID_2_)" class="st36" d="M187.6 28.3l-.1.1-28.6-18.2v-.1"/><path id="polyline5417" clip-path="url(#SVGID_2_)" class="st37" d="M187.6 28.4l-.1.1-28.7-18.2.1-.1"/><path id="polyline5419" clip-path="url(#SVGID_2_)" class="st37" d="M187.5 28.5l-.1.1-28.6-18.2v-.1"/><path id="polyline5421" clip-path="url(#SVGID_2_)" class="st37" d="M187.5 28.5l-.1.1-28.7-18.2.1-.1"/><path id="polyline5423" clip-path="url(#SVGID_2_)" class="st37" d="M187.4 28.6v.1l-28.7-18.2v-.1"/><path id="polyline5425" clip-path="url(#SVGID_2_)" class="st37" d="M187.4 28.7l-.1.1-28.7-18.2.1-.1"/><path id="polyline5427" clip-path="url(#SVGID_2_)" class="st37" d="M187.3 28.7v.2l-28.7-18.3.1-.1"/><path id="polyline5429" clip-path="url(#SVGID_2_)" fill="#eb6b37" d="M187.3 28.8l-.1.1-28.7-18.2.1-.1"/><path id="polyline5431" clip-path="url(#SVGID_2_)" class="st39" d="M187.3 28.9l-.1.1-28.7-18.2.1-.1"/><path id="polyline5433" clip-path="url(#SVGID_2_)" class="st39" d="M187.2 29l-.1.1-28.6-18.2v-.2"/><path id="polyline5435" clip-path="url(#SVGID_2_)" class="st39" d="M187.2 29l-.1.1-28.7-18.2.1-.1"/><path id="polyline5437" clip-path="url(#SVGID_2_)" class="st39" d="M187.1 29.1v.1L158.4 11v-.1"/><path id="polyline5439" clip-path="url(#SVGID_2_)" class="st39" d="M187.1 29.2l-.1.1-28.7-18.2.1-.1"/><path id="polyline5441" clip-path="url(#SVGID_2_)" class="st39" d="M187 29.2v.1l-28.7-18.2.1-.1"/><path id="polyline5443" clip-path="url(#SVGID_2_)" class="st39" d="M187 29.3l-.1.1-28.7-18.2.1-.1"/><path id="polyline5445" clip-path="url(#SVGID_2_)" class="st40" d="M186.9 29.4v.1l-28.7-18.2.1-.1"/><path id="polyline5447" clip-path="url(#SVGID_2_)" class="st40" d="M186.9 29.4l-.1.1-28.6-18.2v-.1"/><path id="polyline5449" clip-path="url(#SVGID_2_)" class="st41" d="M186.9 29.5l-.1.1-28.7-18.2.1-.1"/><path id="polyline5451" clip-path="url(#SVGID_2_)" class="st41" d="M186.8 29.6v.1l-28.7-18.2v-.1"/><path id="polyline5453" clip-path="url(#SVGID_2_)" class="st41" d="M186.8 29.6l-.1.1L158 11.5l.1-.1"/><path id="polyline5455" clip-path="url(#SVGID_2_)" class="st41" d="M186.7 29.7v.1L158 11.6v-.1"/><path id="polyline5457" clip-path="url(#SVGID_2_)" class="st41" d="M186.7 29.8l-.1.1-28.7-18.2.1-.1"/><path id="polyline5459" clip-path="url(#SVGID_2_)" class="st42" d="M186.6 29.8v.1l-28.7-18.2.1-.1"/><path id="polyline5461" clip-path="url(#SVGID_2_)" class="st42" d="M186.6 29.9l-.1.1-28.6-18.2v-.1"/><path id="polyline5463" clip-path="url(#SVGID_2_)" class="st42" d="M186.6 30l-.1.1-28.7-18.2.1-.1"/><path id="polyline5465" clip-path="url(#SVGID_2_)" fill="#eb6e35" d="M186.5 30.1l-.1.1-28.6-18.3v-.1"/><path id="polyline5467" clip-path="url(#SVGID_2_)" class="st44" d="M186.5 30.1l-.1.1L157.7 12l.1-.1"/><path id="polyline5469" clip-path="url(#SVGID_2_)" class="st44" d="M186.4 30.2v.1l-28.7-18.2V12"/><path id="polyline5471" clip-path="url(#SVGID_2_)" class="st44" d="M186.4 30.3l-.1.1-28.7-18.2.1-.2"/><path id="polyline5473" clip-path="url(#SVGID_2_)" class="st44" d="M186.3 30.3v.1l-28.7-18.2.1-.1"/><path id="polyline5475" clip-path="url(#SVGID_2_)" class="st44" d="M186.3 30.4l-.1.1-28.7-18.2.1-.1"/><path id="polyline5477" clip-path="url(#SVGID_2_)" class="st45" d="M186.3 30.5l-.1.1-28.7-18.2.1-.1"/><path id="polyline5479" clip-path="url(#SVGID_2_)" class="st45" d="M186.2 30.5l-.1.1-28.6-18.2v-.1"/><path id="polyline5481" clip-path="url(#SVGID_2_)" class="st45" d="M186.2 30.6l-.1.1-28.7-18.2.1-.1"/><path id="polyline5483" clip-path="url(#SVGID_2_)" class="st45" d="M186.1 30.7v.1l-28.7-18.2v-.1"/><path id="polyline5485" clip-path="url(#SVGID_2_)" class="st46" d="M186.1 30.7l-.1.1-28.7-18.2.1-.1"/><path id="polyline5487" clip-path="url(#SVGID_2_)" class="st46" d="M186 30.8v.1l-28.7-18.2.1-.1"/><path id="polyline5489" clip-path="url(#SVGID_2_)" class="st47" d="M186 30.9l-.1.1-28.7-18.2.1-.1"/><path id="polyline5491" clip-path="url(#SVGID_2_)" class="st47" d="M185.9 30.9v.1l-28.7-18.2.1-.1"/><path id="polyline5493" clip-path="url(#SVGID_2_)" class="st48" d="M185.9 31l-.1.1-28.6-18.2v-.1"/><path id="polyline5495" clip-path="url(#SVGID_2_)" class="st48" d="M185.9 31.1l-.1.1L157.1 13l.1-.1"/><path id="polyline5497" clip-path="url(#SVGID_2_)" class="st48" d="M185.8 31.1v.1L157.1 13v-.1"/><path id="polyline5499" clip-path="url(#SVGID_2_)" class="st48" d="M185.8 31.2l-.1.1L157 13.1l.1-.1"/><path id="polyline5501" clip-path="url(#SVGID_2_)" class="st49" d="M185.7 31.3v.1L157 13.2v-.1"/><path id="polyline5503" clip-path="url(#SVGID_2_)" class="st49" d="M185.7 31.4l-.1.1-28.7-18.3.1-.1"/><path id="polyline5505" clip-path="url(#SVGID_2_)" class="st49" d="M185.6 31.4v.1l-28.7-18.2.1-.1"/><path id="polyline5507" clip-path="url(#SVGID_2_)" class="st49" d="M185.6 31.5l-.1.1-28.6-18.2v-.1"/><path id="polyline5509" clip-path="url(#SVGID_2_)" class="st50" d="M185.6 31.6l-.1.1-28.7-18.2.1-.1"/><path id="polyline5511" clip-path="url(#SVGID_2_)" class="st50" d="M185.5 31.6l-.1.1-28.6-18.2v-.1"/><path id="polyline5513" clip-path="url(#SVGID_2_)" class="st51" d="M185.5 31.7l-.1.1-28.7-18.2.1-.1"/><path id="polyline5515" clip-path="url(#SVGID_2_)" class="st51" d="M185.4 31.8v.1l-28.7-18.2v-.1"/><path id="polyline5517" clip-path="url(#SVGID_2_)" class="st51" d="M185.4 31.8l-.1.1-28.7-18.2.1-.1"/><path id="polyline5519" clip-path="url(#SVGID_2_)" class="st52" d="M185.3 31.9v.1l-28.7-18.2.1-.1"/><path id="polyline5521" clip-path="url(#SVGID_2_)" class="st52" d="M185.3 32l-.1.1-28.7-18.2.1-.1"/><path id="polyline5523" clip-path="url(#SVGID_2_)" class="st52" d="M185.3 32l-.1.1-28.7-18.2.1-.1"/><path id="polyline5525" clip-path="url(#SVGID_2_)" fill="#eb7530" d="M185.2 32.1l-.1.1L156.5 14v-.1"/><path id="polyline5527" clip-path="url(#SVGID_2_)" class="st54" d="M185.2 32.2l-.1.1-28.7-18.2.1-.1"/><path id="polyline5529" clip-path="url(#SVGID_2_)" class="st54" d="M185.1 32.2v.1l-28.7-18.2V14"/><path id="polyline5531" clip-path="url(#SVGID_2_)" class="st54" d="M185.1 32.3l-.1.1-28.7-18.2.1-.1"/><path id="polyline5533" clip-path="url(#SVGID_2_)" class="st54" d="M185 32.4v.1l-28.7-18.2.1-.1"/><path id="polyline5535" clip-path="url(#SVGID_2_)" class="st55" d="M185 32.4l-.1.2-28.7-18.3.1-.1"/><path id="polyline5537" clip-path="url(#SVGID_2_)" class="st55" d="M184.9 32.5v.1l-28.7-18.2.1-.1"/><path id="polyline5539" clip-path="url(#SVGID_2_)" class="st55" d="M184.9 32.6l-.1.1-28.6-18.2v-.1"/><path id="polyline5541" clip-path="url(#SVGID_2_)" class="st55" d="M184.9 32.7l-.1.1-28.7-18.3.1-.1"/><path id="polyline5543" clip-path="url(#SVGID_2_)" class="st56" d="M184.8 32.7v.1l-28.7-18.2v-.1"/><path id="polyline5545" clip-path="url(#SVGID_2_)" class="st56" d="M184.8 32.8l-.1.1L156 14.7l.1-.1"/><path id="polyline5547" clip-path="url(#SVGID_2_)" class="st57" d="M184.7 32.9v.1L156 14.8v-.1"/><path id="polyline5549" clip-path="url(#SVGID_2_)" class="st57" d="M184.7 32.9l-.1.1-28.7-18.2.1-.1"/><path id="polyline5551" clip-path="url(#SVGID_2_)" fill="#eb792e" d="M184.6 33v.1l-28.7-18.2.1-.1"/><path id="polyline5553" clip-path="url(#SVGID_2_)" class="st59" d="M184.6 33.1l-.1.1L155.9 15v-.1"/><path id="polyline5555" clip-path="url(#SVGID_2_)" class="st59" d="M184.6 33.1l-.1.1L155.8 15l.1-.1"/><path id="polyline5557" clip-path="url(#SVGID_2_)" class="st59" d="M184.5 33.2l-.1.1-28.6-18.2V15"/><path id="polyline5559" clip-path="url(#SVGID_2_)" class="st60" d="M184.5 33.3l-.1.1-28.7-18.2.1-.1"/><path id="polyline5561" clip-path="url(#SVGID_2_)" class="st60" d="M184.4 33.3v.1l-28.7-18.2v-.1"/><path id="polyline5563" clip-path="url(#SVGID_2_)" class="st60" d="M184.4 33.4l-.1.1-28.7-18.2.1-.1"/><path id="polyline5565" clip-path="url(#SVGID_2_)" class="st60" d="M184.3 33.5v.1l-28.7-18.2.1-.1"/><path id="polyline5567" clip-path="url(#SVGID_2_)" class="st60" d="M184.3 33.5l-.1.1-28.7-18.2.1-.1"/><path id="polyline5569" clip-path="url(#SVGID_2_)" fill="#ec7b2d" d="M184.3 33.6l-.1.1-28.7-18.2.1-.1"/><path id="polyline5571" clip-path="url(#SVGID_2_)" class="st62" d="M184.2 33.7l-.1.1-28.6-18.2v-.1"/><path id="polyline5573" clip-path="url(#SVGID_2_)" class="st62" d="M184.2 33.7l-.1.2-28.7-18.3.1-.1"/><path id="polyline5575" clip-path="url(#SVGID_2_)" class="st62" d="M184.1 33.8v.1l-28.7-18.2v-.1"/><path id="polyline5577" clip-path="url(#SVGID_2_)" class="st63" d="M184.1 33.9l-.1.1-28.7-18.2.1-.1"/><path id="polyline5579" clip-path="url(#SVGID_2_)" class="st63" d="M184 34v.1l-28.7-18.2.1-.2"/><path id="polyline5581" clip-path="url(#SVGID_2_)" class="st63" d="M184 34l-.1.1-28.7-18.2.1-.1"/><path id="polyline5583" clip-path="url(#SVGID_2_)" fill="#ec7c2b" d="M183.9 34.1v.1L155.2 16l.1-.1"/><path id="polyline5585" clip-path="url(#SVGID_2_)" class="st65" d="M183.9 34.2l-.1.1-28.6-18.2V16"/><path id="polyline5587" clip-path="url(#SVGID_2_)" class="st65" d="M183.9 34.2l-.1.1-28.7-18.2.1-.1"/><path id="polyline5589" clip-path="url(#SVGID_2_)" class="st65" d="M183.8 34.3v.1l-28.7-18.2v-.1"/><path id="polyline5591" clip-path="url(#SVGID_2_)" class="st65" d="M183.8 34.4l-.1.1L155 16.3l.1-.1"/><path id="polyline5593" clip-path="url(#SVGID_2_)" fill="#ec7e2b" d="M183.7 34.4v.1L155 16.3v-.1"/><path id="polyline5595" clip-path="url(#SVGID_2_)" class="st67" d="M183.7 34.5l-.1.1-28.7-18.2.1-.1"/><path id="polyline5597" clip-path="url(#SVGID_2_)" class="st67" d="M183.6 34.6v.1l-28.7-18.2.1-.1"/><path id="polyline5599" clip-path="url(#SVGID_2_)" class="st67" d="M183.6 34.6l-.1.1-28.6-18.2v-.1"/><path id="polyline5601" clip-path="url(#SVGID_2_)" class="st68" d="M183.6 34.7l-.1.1-28.7-18.2.1-.1"/><path id="polyline5603" clip-path="url(#SVGID_2_)" class="st68" d="M183.5 34.8l-.1.1-28.6-18.2v-.1"/><path id="polyline5605" clip-path="url(#SVGID_2_)" class="st68" d="M183.5 34.8l-.1.1-28.7-18.2.1-.1"/><path id="polyline5607" clip-path="url(#SVGID_2_)" class="st69" d="M183.4 34.9v.1l-28.7-18.2v-.1"/><path id="polyline5609" clip-path="url(#SVGID_2_)" class="st69" d="M183.4 35l-.1.1-28.7-18.2.1-.1"/><path id="polyline5611" clip-path="url(#SVGID_2_)" class="st70" d="M183.3 35.1v.1l-28.7-18.3.1-.1"/><path id="polyline5613" clip-path="url(#SVGID_2_)" class="st70" d="M183.3 35.1l-.1.1L154.5 17l.1-.1"/><path id="polyline5615" clip-path="url(#SVGID_2_)" class="st70" d="M183.3 35.2l-.1.1-28.7-18.2.1-.1"/><path id="polyline5617" clip-path="url(#SVGID_2_)" class="st70" d="M183.2 35.3l-.1.1-28.6-18.2V17"/><path id="polyline5619" clip-path="url(#SVGID_2_)" class="st71" d="M183.2 35.3l-.1.1-28.7-18.2.1-.1"/><path id="polyline5621" clip-path="url(#SVGID_2_)" class="st71" d="M183.1 35.4v.1l-28.7-18.2v-.1"/><path id="polyline5623" clip-path="url(#SVGID_2_)" class="st71" d="M183.1 35.5l-.1.1-28.7-18.2.1-.1"/><path id="polyline5625" clip-path="url(#SVGID_2_)" class="st71" d="M183 35.5v.1l-28.7-18.2.1-.1"/><path id="polyline5627" clip-path="url(#SVGID_2_)" class="st72" d="M183 35.6l-.1.1-28.7-18.2.1-.1"/><path id="polyline5629" clip-path="url(#SVGID_2_)" class="st72" d="M182.9 35.7v.1l-28.7-18.2.1-.1"/><path id="polyline5631" clip-path="url(#SVGID_2_)" class="st73" d="M182.9 35.7l-.1.1-28.6-18.2v-.1"/><path id="polyline5633" clip-path="url(#SVGID_2_)" class="st73" d="M182.9 35.8l-.1.1-28.7-18.2.1-.1"/><path id="polyline5635" clip-path="url(#SVGID_2_)" class="st74" d="M182.8 35.9v.1l-28.7-18.2v-.1"/><path id="polyline5637" clip-path="url(#SVGID_2_)" class="st74" d="M182.8 35.9l-.1.1L154 17.8l.1-.1"/><path id="polyline5639" clip-path="url(#SVGID_2_)" class="st74" d="M182.7 36v.1L154 17.9v-.1"/><path id="polyline5641" clip-path="url(#SVGID_2_)" class="st74" d="M182.7 36.1l-.1.1L153.9 18l.1-.1"/><path id="polyline5643" clip-path="url(#SVGID_2_)" class="st75" d="M182.6 36.1v.1L153.9 18l.1-.1"/><path id="polyline5645" clip-path="url(#SVGID_2_)" class="st75" d="M182.6 36.2l-.1.1-28.6-18.2V18"/><path id="polyline5647" clip-path="url(#SVGID_2_)" class="st75" d="M182.6 36.3l-.5.7-28.7-18.2.5-.7"/></g></svg>